<mxfile host="app.diagrams.net" modified="2023-11-13T23:28:13.700Z" agent="Mozilla/5.0 (Windows NT 10.0; Win64; x64) AppleWebKit/537.36 (KHTML, like Gecko) Chrome/119.0.0.0 Safari/537.36" etag="RCVXHYE8lxvfaLO4f-de" version="22.1.0" type="github">
  <diagram name="Page-1" id="gHKBDr5t76uutiOnwRir">
    <mxGraphModel dx="3414" dy="1132" grid="1" gridSize="10" guides="1" tooltips="1" connect="1" arrows="1" fold="1" page="1" pageScale="1" pageWidth="1100" pageHeight="1700" math="0" shadow="0">
      <root>
        <mxCell id="0" />
        <mxCell id="1" parent="0" />
        <mxCell id="OqGSFoKqHse3q_Ia956D-81" value="" style="rounded=1;whiteSpace=wrap;html=1;" parent="1" vertex="1">
          <mxGeometry x="-700" y="110" width="1300" height="940" as="geometry" />
        </mxCell>
        <mxCell id="OqGSFoKqHse3q_Ia956D-20" value="" style="rounded=1;whiteSpace=wrap;html=1;fillColor=#dae8fc;strokeColor=#6c8ebf;" parent="1" vertex="1">
          <mxGeometry x="-671" y="140" width="1240" height="880" as="geometry" />
        </mxCell>
        <mxCell id="TjWUEsn5IVO1DjWOrf8H-6" value="" style="rounded=1;whiteSpace=wrap;html=1;" parent="1" vertex="1">
          <mxGeometry x="-191" y="220" width="750" height="740" as="geometry" />
        </mxCell>
        <mxCell id="OqGSFoKqHse3q_Ia956D-2" value="Authentication via NCAR LDAP" style="rounded=1;whiteSpace=wrap;html=1;" parent="1" vertex="1">
          <mxGeometry x="232.58999999999997" y="950" width="132.81" height="50" as="geometry" />
        </mxCell>
        <mxCell id="OqGSFoKqHse3q_Ia956D-10" value="&lt;font face=&quot;Verdana&quot; style=&quot;font-size: 14px;&quot;&gt;&lt;b&gt;Worker Nodes Bare Metal&lt;br&gt;Control Plane Nodes VMs&lt;/b&gt;&lt;/font&gt;" style="text;html=1;align=center;verticalAlign=middle;resizable=0;points=[];autosize=1;strokeColor=none;fillColor=none;rotation=0;" parent="1" vertex="1">
          <mxGeometry x="-409" y="480" width="220" height="50" as="geometry" />
        </mxCell>
        <mxCell id="OqGSFoKqHse3q_Ia956D-19" value="" style="group" parent="1" vertex="1" connectable="0">
          <mxGeometry x="-399" y="565" width="200" height="405" as="geometry" />
        </mxCell>
        <mxCell id="OqGSFoKqHse3q_Ia956D-18" value="&lt;font style=&quot;font-size: 13px;&quot;&gt;&lt;br&gt;&lt;br&gt;&lt;br&gt;&lt;br&gt;&lt;br&gt;&lt;br&gt;&lt;br&gt;&lt;br&gt;&lt;font style=&quot;font-size: 13px;&quot; color=&quot;#ffffff&quot;&gt;&lt;b&gt;NCAR Stratus &lt;br&gt;S3&lt;/b&gt;&lt;/font&gt;&lt;/font&gt;" style="rounded=1;whiteSpace=wrap;html=1;fillColor=#005F4B;" parent="OqGSFoKqHse3q_Ia956D-19" vertex="1">
          <mxGeometry width="200" height="180" as="geometry" />
        </mxCell>
        <mxCell id="OqGSFoKqHse3q_Ia956D-17" value="" style="sketch=0;pointerEvents=1;shadow=0;dashed=0;html=1;strokeColor=none;fillColor=#005F4B;labelPosition=center;verticalLabelPosition=bottom;verticalAlign=top;align=center;outlineConnect=0;shape=mxgraph.veeam2.s3_compatible;aspect=fixed;" parent="OqGSFoKqHse3q_Ia956D-19" vertex="1">
          <mxGeometry x="44" y="20" width="112" height="112" as="geometry" />
        </mxCell>
        <mxCell id="OqGSFoKqHse3q_Ia956D-21" value="" style="group" parent="1" vertex="1" connectable="0">
          <mxGeometry x="-394" y="152" width="190" height="320" as="geometry" />
        </mxCell>
        <mxCell id="TjWUEsn5IVO1DjWOrf8H-14" value="" style="fontColor=#0066CC;verticalAlign=top;verticalLabelPosition=bottom;labelPosition=center;align=center;html=1;outlineConnect=0;fillColor=#CCCCCC;strokeColor=#6881B3;gradientColor=none;gradientDirection=north;strokeWidth=2;shape=mxgraph.networks.server;" parent="OqGSFoKqHse3q_Ia956D-21" vertex="1">
          <mxGeometry y="120" width="190" height="200" as="geometry" />
        </mxCell>
        <mxCell id="OqGSFoKqHse3q_Ia956D-9" value="" style="image;sketch=0;aspect=fixed;html=1;points=[];align=center;fontSize=12;image=img/lib/mscae/VM_Linux.svg;" parent="OqGSFoKqHse3q_Ia956D-21" vertex="1">
          <mxGeometry x="29.78" width="130.43" height="120" as="geometry" />
        </mxCell>
        <mxCell id="TjWUEsn5IVO1DjWOrf8H-15" value="" style="image;sketch=0;aspect=fixed;html=1;points=[];align=center;fontSize=12;image=img/lib/mscae/Kubernetes.svg;" parent="1" vertex="1">
          <mxGeometry x="-241" y="170" width="148.8" height="142.85" as="geometry" />
        </mxCell>
        <mxCell id="OqGSFoKqHse3q_Ia956D-22" value="" style="group" parent="1" vertex="1" connectable="0">
          <mxGeometry x="-651" y="280" width="200" height="264" as="geometry" />
        </mxCell>
        <mxCell id="TjWUEsn5IVO1DjWOrf8H-11" value="&lt;div style=&quot;font-family: Consolas, &amp;quot;Courier New&amp;quot;, monospace; font-size: 14px; line-height: 19px;&quot;&gt;&lt;font style=&quot;background-color: rgb(255, 255, 255);&quot; color=&quot;#000000&quot;&gt;gladedm1.ucar.edu&lt;/font&gt;&lt;/div&gt;" style="fontColor=#0066CC;verticalAlign=top;verticalLabelPosition=bottom;labelPosition=center;align=center;html=1;outlineConnect=0;fillColor=#CCCCCC;strokeColor=#6881B3;gradientColor=none;gradientDirection=north;strokeWidth=2;shape=mxgraph.networks.storage;" parent="OqGSFoKqHse3q_Ia956D-22" vertex="1">
          <mxGeometry x="29" y="124" width="142" height="140" as="geometry" />
        </mxCell>
        <mxCell id="TjWUEsn5IVO1DjWOrf8H-29" value="Server IPs allowed&lt;br&gt;Read Only Access&lt;br&gt;/campaign&lt;br&gt;/collections" style="rounded=1;whiteSpace=wrap;html=1;" parent="OqGSFoKqHse3q_Ia956D-22" vertex="1">
          <mxGeometry width="200" height="70" as="geometry" />
        </mxCell>
        <mxCell id="TjWUEsn5IVO1DjWOrf8H-30" value="" style="shape=flexArrow;endArrow=classic;startArrow=classic;html=1;rounded=0;exitX=1;exitY=0.5;exitDx=0;exitDy=0;fillColor=default;" parent="OqGSFoKqHse3q_Ia956D-22" source="TjWUEsn5IVO1DjWOrf8H-29" edge="1">
          <mxGeometry width="100" height="100" relative="1" as="geometry">
            <mxPoint x="170" y="228" as="sourcePoint" />
            <mxPoint x="260" y="35" as="targetPoint" />
          </mxGeometry>
        </mxCell>
        <mxCell id="TjWUEsn5IVO1DjWOrf8H-31" value="" style="shape=flexArrow;endArrow=classic;startArrow=classic;html=1;rounded=0;exitX=0.5;exitY=0;exitDx=0;exitDy=0;entryX=0.5;entryY=1;entryDx=0;entryDy=0;exitPerimeter=0;fillColor=default;" parent="OqGSFoKqHse3q_Ia956D-22" source="TjWUEsn5IVO1DjWOrf8H-11" target="TjWUEsn5IVO1DjWOrf8H-29" edge="1">
          <mxGeometry width="100" height="100" relative="1" as="geometry">
            <mxPoint x="170.5" y="303" as="sourcePoint" />
            <mxPoint x="170.5" y="243" as="targetPoint" />
          </mxGeometry>
        </mxCell>
        <mxCell id="OqGSFoKqHse3q_Ia956D-80" value="&lt;font face=&quot;Verdana&quot; style=&quot;font-size: 23px;&quot;&gt;&lt;b&gt;NCAR Internal Network&lt;br&gt;Only accessible via VPN or onsite&lt;/b&gt;&lt;/font&gt;" style="text;html=1;align=center;verticalAlign=middle;resizable=0;points=[];autosize=1;strokeColor=none;fillColor=none;" parent="1" vertex="1">
          <mxGeometry x="-590" y="940" width="450" height="70" as="geometry" />
        </mxCell>
        <mxCell id="OqGSFoKqHse3q_Ia956D-90" value="" style="group" parent="1" vertex="1" connectable="0">
          <mxGeometry x="-186" y="320" width="140" height="160" as="geometry" />
        </mxCell>
        <mxCell id="OqGSFoKqHse3q_Ia956D-91" value="&lt;b&gt;&lt;br&gt;&lt;br&gt;&lt;br&gt;&lt;br&gt;&lt;br&gt;&lt;br&gt;&lt;br&gt;&lt;br&gt;Rook&lt;br&gt;Storage Orchestrator&lt;/b&gt;" style="rounded=1;whiteSpace=wrap;html=1;fillColor=#C3D7EE;" parent="OqGSFoKqHse3q_Ia956D-90" vertex="1">
          <mxGeometry width="140" height="160" as="geometry" />
        </mxCell>
        <mxCell id="OqGSFoKqHse3q_Ia956D-92" value="" style="shape=image;verticalLabelPosition=bottom;labelBackgroundColor=default;verticalAlign=top;aspect=fixed;imageAspect=0;image=data:image/png,iVBORw0KGgoAAAANSUhEUgAAARgAAAEYCAYAAACHjumMAAAXyUlEQVR4nOzdfZQcVZ038B+ElwDCiSBUK+pBqxDhGaabx/SDJoB5HmJdfXRlMrC8DdPjoBimZw/uTk8GkbMC2YVDXro96tpJRDNMZwbjLjPpQV2pm0GRJajb8dCVjAjSpSwEqBKNMSASTMye2kzcnKwJk65761bVfD//yNml7v1Wza0vVf1SfczevXsJAECGo1UHAIDkQsEAgDQoGACQBgUDANKgYABAGhQMAEiDggEAaVAwACANCgYApEHBAIA0KBgAkAYFAwDSoGAAQBoUDABIg4IBAGlQMAAgDQoGAKRBwQCANCgYAJAGBQMA0hyjOsDBXNedbXHLtG37XCKarTrPdKS0lJNOpx9ljD2jOgvtO4azLG5dYtv2BUR0suo805HSUi+m0+kfptPpyVQqpfxJ9DFchztzudyGTDoTiTW431FR+VUB13VPWb5i+c2c808R0Rmq8zRD07SHB5YM9DLGnlAxv+u6xy5fsfx6znk/ERkqMggwuWTJkr/pynX9QMXkU+uwn3O+OIbrcLeu6+P5nvwtjLGnVYehqBRMo9E4um1R28NEdLHqLALsGFw7+IFsNvtk2BNf1nbZVx3HuSHseSXYk52bvXpwcPD+MCdN0Dp8vrqh2mIYxg7VQSLxGkx5Vfm2BPxR95vTfX33Dy3Lag1z0mXLl12ZkHLxzaptrq1ftnzZZWFOWl5V/vuErMMzF9+4+D6/MFUHUX4FY1nWxYX+wvei+HpQEJqm/fihiYfeH8ZclmWdXugv+LdlbwljvhC5Exsn9FQq9arsiZK4DnVdv2e8Ov5plRmUN1yhv3BXkv6o+3med6FlWeeEMdf69etvSmC5+FKjY6MfDmOiJK5D/4rWsqx3q8ygtGAsy0oR0UUqM8hUt+uXhDFPbXOtO4x5VHAcZ77sOSzLOiOp67Bu1xeqnF/1Fcx7FM8vled50vfPsqzT/Htu2fOoYtt2GFeBiV2Hnuedq3J+1QWjen7ZTgxhjkQfQ8/zTgphmkTdGh3kOJWTJ3pxAoBaKBgAkAYFAwDSoGAAQBoUDABIg4IBAGni/PbcLiJqSJ7j+Bh/K3k6fkdE2yTPcQoRvUPyHCr9iohekjzH6TH8Zvd/iXPBNCa3TrbInMCyrPMK/YWfypxDJdM0ealYulLmHJZl/XWhv/DPMudQyTTNcqlYukPmHH2Fvts457fLnEMW3CIBgDQoGACQBgUDANKgYABAmji/yBt5nPN8y/ktedU5Ym5By/kt6p/rCk3BFQwASIOCAQBpUDAAIA0KBgCkQcEAgDQoGACQBgUDANKgYA7vZdUBJPt1CHNsD2EOlcI4hrGFgjkMxthzRPSa6hwSTYYwx89CmEMZZrKfq84QZSiYN6Bp2vdVZ5DkT8xkluxJGGMvENGDsudR5GVN036oOkSUoWDeQK4zdxcR7VGdQ7TW1ta1jDEnjLmKK4vdRPRiGHOFqbW19UuZTOYV1TmiDAXzBrq6uh7Nzs3erDqHYO7SO5aGtk+MMbenp6c/rPlC8uTSO5bepTpE1KFgpmFwcLBomuYtRLRbdZagNE17pLqh+j7DMEJ98bU333ufaZqf92/NwpxXBk3TNlY3VC81DONV1VmiDgUzTaVi6e7iymLaNM0SEW2N2Ymyg4g25jpznxgZHllgGMYLKkKUiqV/WLJkyVzTNFeH8Dxl0Xbouv6dXGeua2R4hKk6hnGDxzUcAcbYE4yxAu171uzJjuOcpjrTNOzJ5/PPqQ6xX1eu63Ei6qF9x/BUx3FOUZ1pGl7P5/MolCagYJrEGHt5BnxORirG2PYZ8DmZGQ23SAAgDQoGAKRBwQCANCgYAJAGBQMA0qBgAEAaFAwASIOCAQBpUDAAIA0KBgCkQcEAgDQoGACQBgUDANKgYABAGhQMAEiDggEAaVAwACANCgYApEHBAIA0KBgAkAYFAwDSoGAAQJo4/2zJiZZlLVAdgoi2p9Ppp1Kp1C7VQUCMRqNx8qbHNi20bTtDRG9Rnce27bmqMzQrzgXzrkJ/4fuqQ0zZkZ2b/dqtt956p2EYO1SHgeb1FfrynPMiEc1WnSUJcIskxpza5lp/26K2J4YqQx9UHQaOXKPROLqjo+OLnPOvoFzEQcGI9dYVK1bwvkLfDaqDwPS5rnt8ob9QtbfYN6nOkjQoGPGO45x/1bKstOogMD2jY6NXO47zV6pzJBEKRpKhytAS1RlgesbGxj6pOkNSoWAk2bJlS7t/6a06BxxevV4/zfO8+apzJBUKRp4TbNvWVYeAw/M87904D+TBgZXrDNUB4A2dpDpAkqkumFcVzy/b71QHgDf0H6oDSPaCyslVF8xTiueXStf1RO9fEjDGfklEif1wpK7rj6ucX2nBMMb8/8KPqswgUc0wjKRfoSVCa2vrmOoMkrjz581/RGUA1VcwVN1Q7SGiF1XnEK2zs3OZ6gwwPQNLBm7zT0bVOQTble/JX5nJZF5RGUJ5wRiG8VJPT0+/6hyCrb954OakXpklTiaT2Ta4dvD/JulWSdf1Yj6f/zfVOZQXjK8333ufaZqJ+C++pmn3VjdUu1XngCOTzWafLK4sfoSIfqE6S0Cvp1vTpTWr19yuOojvqL1796rO8GeWZb23Uqn02lvsa4noVNV5jsBOXdd/MH/e/K8PDAyMqw4DzXNd9/ixsbGPbtq06cP2FvsCIjpBdabp0DTNYSaz0un0vzDGXlKdZ79IFcx+jUbjaM75eVF4Fsc07DRNc6thGH9UHQQgaiJZMACQDJF4DQYAkgkFAwDSoGAAQBoUDABIg4IBAGlQMAAgDQoGAKRBwQCANCgYAJAGBQMA0qBgAEAaFAwASBOpH7+3LCtl2/Y1Frc+5nneO4hojupMADGwQ9O0Z5jJvtXe3r7OMIzIPDgrEt+mdl33qOUrli/lnA8Q0XGq8wDE2Oumad49sGTg9lQqpfzkjkTB9BX6+jjnRdU5AJLCNM1CqVgqqc6h/DWYcrn8vznnkXi8H0BScM6Xlsvl96vOofQKxnXdExd+aKFDRCllIQCSyx1eN3y2yl8WUHoFMzo2ugDlAiBNatNjmy5VGUBpwTiOc4HK+QGSznGcVpXzq34N5m2K5wdIOqV3CKoLBgASDAUDANKgYABAGhQMAEiDggEAaVAwACANCgYApInU4xqOUKO4sniZ6hAAshX6C+NEZKjO0Yw4F8wuxtgTqkMAyFboL+xSnaFZuEUCAGlQMAAgDQoGAKRBwQCANCgYAJAGBQMA0qBgAEAaFAwASIOCAQBpUDAAIA0KBgCkQcEAgDQoGACQBgUDANKgYABAGhQMAEiDggEAaVAwACANCgYApEHBAIA0KBgAkAYFAwDSoGAAQJo4/y4SSNBoNE50HCdj23aL67nvIqK32bateZ53PBEdP/Wv7dI0bVc6nfaI6IWUlvplOp2e1HW9bhjGq4p3ASIEBTPD1e36nMc2Pfb/Gk7jg5zzjxDR2dPZzvM84pz/9/9h3Z//6WnTNL9r6MYP5s2fN5FJZ3ZKCQ6xgIKZoRqNxrHlVeU+zvnniOgUgUOfzTk/mxO/qbyqvNM0zbuuufqaL2az2dcEzgExgYKZYep2/e2VSuWTnPNPENFZkqc7hXN+N+f8s+nW9MiSgSV3Z9KZbZLnhAjBi7wzRKPROL2jo2Pldddd1+Cc3x5CuRxojr3F7vXn9jP4WUKcGxRCwSSc67rHd3R03NW2qO1Ze4tdOOCFWhWO9zO0LWrb5mfysynMAiFAwSRYrVabvfjGxVV7i30LEc1WnecAx/mZ/Gx+RtVhQB4UTEINVYY+2H19988cx/mw6iyH4mfzM/pZVWcBOVAwCdRX6MutWLGCh/w6S7PO8rP6mVUHAfFQMAnT3d3dyzlf69+GqM5yBI7zM/vZVQcBsVAwCdJX6PtMbXPtn4holuosTZjlZ/f3QXUQEAcFkxB9hb5rOecl1TmC8vfB3xfVOUAMFEwC1Gq193LOv56Qv+fR/r74+6Q6CASXhAU5o1mWdVb39d0TEXsbOqjZ/j75+6Y6CASDrwrEmOu6s5avWH4fEZ0pcZpfaJr2dDqd/vOXFh3HOdFxHH/OcyV+cO9Mf9/S6fTFqVRqj6Q5QDIUTIyNjo1e63neByQMXc/35Jdls9lvZ7PZVw71LzUajdmc8wUWtzodx7lK9IvL/r75+9ib710nclwIDwomphqNxomrVq26VeCQv0+3psu5XO4+xlh9OhsYhvGaYRgP5vP5B+t2/ZZKpXIV5/zT/v9LVCh/H5nJRvGcmXjCazAx5LruUYX+wggRnSNguJd1XV8xPDxsjIyMDEy3XA6WSWeeLRVLKyY2TrzXNM2biOg3ArL5zvH31d9nQeNBiFAwMTQ6NnqJ4zhtAoZ6raen50Pj1fGBTDrjChiPUqnUnlKx9OXBtYP+VUxNxJj+vvr7LGIsCBcKJobGxsbyAobZXlxZvLQ33/tjAWP9D9lsdsfExgmmadrDIsYTtM8QMhRMzNTr9Xd5ntcecJjniyuLCxljjwmK9RelUqnfjgyPfFTX9XuDjuXvs7/vYpJBWFAwMVNZV7ky4IvzOwfXDi5gjD0uMNYhpVKpV8er4926rlcDDnXM1L5DjKBgYoZzvijI9qZp9mez2Ya4RNOT78l/xr8tCzJG0H2H8KFgYqRcLmeI6MJmt9c07TulYukesammhzH2bGdn598GHObCqWMAMYGCiZHyqvLiINu3t7f/o7g0R+7mgZvXEdEzQcYIegwgXCiYmHBdd5bfEc1ur+t6tTff+yOxqY5cZ2fnVwIO0T51LCAGUDAxYdu2f2twRpOb/yHfk+8RHKkpzGRfDfghvDOmjgXEAAomJhpOo6XZbXVd/x5jTMgH6YLKZDI7s3Ozgb5bFORYQLhQMDHhOE7TXwvQdf0RsWmCyWazgV5oDnIsIFwomJhwXffcZrdlJhPyaVpR8vn8E/6FSLPbBzkWEC4UTExs2bIl1ey2uq5Pik0TnK7rP2t22yDHAsKFgomPU5vcbkcUH3Wg6/qzATZv9lhAyFAw8fHmJrd7XnAOUV4KsG2zxwJChoIBAGlQMAAgDQoGAKRBwQCANCgYAJAGBQMA0qBgAEAaFAwASIOCAQBpUDAAIA0KBgCkQcEAgDQoGACQBgUDANKgYABAGhQMAEiDggEAaVAwACANCgYApDlGdQCQ7vRyuXyb6hAHcxxngeoMIB8KJvnOKK8q3646BMxMuEUCAGlQMAAgDQoGAKRRXTC/CbDtGQJzAERZkLUe5BwLTHXBvB5gW/x8KMwUQdZ6kHMsMNUF8+sA286yLAs/IQqJNrXGZwUYIsg5FpjSgmEmezHgEIagKABRFWiNCzjHAlF9BbMtyMZ1u94qLkrkuaoDRMiMORYC1nigcywo1QXzyyAbe553jrgo0abr+k9UZ4gK0zR/pDpDWASs8UDnWFBqb5EY205Ev2p2e9u2LxCbKLraF7V/U3WGqEi3pu9XnSEsAdf4r6bOMWVUX8H4vtfshp7nzW80GieKjRNNXV1dD+q6vkJ1DtV0Xb+7q6uLq84RBn9t+2s8wBBNn1uiKC+YfE9+U4DNT+CctwuME2nj1fEBXde/pTqHKrquV8er47eozhGWqbV9QrPbBzy3hFBeMET0r0E2Lq8qd4qLEn1rVq+5WtO0e4loj+osYdI0bXjN6jUdqnOEScDaDnRuiXDU3r17VWeglvNbniKi9zS7fXFl8XzG2KTYVNFmWdbbbNu+wrbti+wt9umq88iQbk1v11Lao8xkGxhjz6jOEybLsloK/YWtAYb4+eTWSeVvgkTicQ26rtccx2m6YCxuXT7TCoYx9gJj7EtE9CXVWUA8f00H2d4/p8SlaV4UbpFo3rx5jwTZnnN+lbg0AOoFXdNBzylRIlEwzGTfJqI/BRji3KGhof8vMBKAMlNr+dwAQ/xp6pxSLhIFk8lkXiCiQLc4YxvGbhCXCEAdAWt5cuqcUi4SBUP7Pp1pBdnecZyPWZaVFZcIIHz+GvbXcpAxgp5LIkWmYJjJKgGHOKbQX3igXq+fJigSQKj8teuv4aBvvgg4l4SJTsHsexco6HdMUpV1lc8IigQQqqm1mwo4zI+i9I5qZAqG9n3y8NagY3DOb6rX628XkwggHP6a9ddu0HFEnEMiReKDdge6dOGl3PO8DwUZQ9O0iTWr1zDDMIK8MwUQikajcfTiGxdbnuctDDKOpmkbH5p4yBSXLLhIXcH42tvb7wk6hv+HuvPOO+8UkwhALn+tBi0XEnTuiBa5grm8/fIHiOi5oOPUNtc+21fou1ZMKgA5/DXqr1UBQz03de5ESuQKJpVK7ers7LxbxFic869ZlnWRiLEARPPXpr9GRYzlnzP+uSNiLJEi9xoM7bsnPbZtUduzAl5R9z0/uHZwbjabnTGPWYToq9Vqqe7ruzcT0ZkChnOrG6rvNAzjjwLGEipyVzA+/0Dle/LXENFuAcOd6f8hLcuaMU+/g2jz16LActntnytRLBeKasH48vn8w62trV8QNNyZhf7ChGVZlwgaD6Ap/hr016KgciH/HPHPFRFjyRDJW6T9Go3GnLZFbduI6CRBQ/4+OzfbNjg4OCFoPIBp6+7uXljbXKuKXM/VDdW3G4axQ9B4wkX2Cob23SrtME1zqcAhT6ptrj3YV+i7w3XdowSOC3BI/lrz15y/9gSWC/nnRpTLhaJ+BUNTf5zFNy4echxH6KMxNU17+PL2y/8un8/XRY4LcKByuZwZHRv9gud5C0SOq2naIyPDIwtSqVSkT+DIF8x+Lee3PE5EGdHj6rr+2fHq+DLR4wJc1nbZzY7jCPnIxUF2F1cWWxhjT0kYW6hI3yIdqLiy+GkiEv4+v78ALl146QPlcvli0WPDzOSvJX9NSSqXXfme/BVxKBeK0xUM7fvUYxfn/F5Z42ua9u+5XO6u+fPmfwvfY4Ij4d/KW9z6eKVS+Zznef9H1jymaX6iVCwNyRpftFgVDO0rmTs455+XPM2OdGv6myYzB7tyXT+WPBfE2FBl6ELbtts451cS0btlzmWa5tJSsXSbzDlEi13B0L7XY75BRFeHNF0935Nfo+v6KGPspZDmhAizLOt0x3EuL68qL5bxuuAhrJ/cOnlNSHMJE8uCmfp6+z2e510f4rS7iegnpmk+TkRPMJM9SUTPaCntxUw680qIOSAkdbv+Js/13kpE77S4dR4Rncc5v4CI3hfmT/5omrZ2zeo1N8Txtj2WBUNT97wd13V8LeSSOZQ/ENH+kvl1wF9IAHX80jh16p/fFORnW0Xxy2VkeORTUX87+lBiWzA0dSXTtqhtiIiuU50FQILh6oZqVxyvXPaLzdvUf4l/4Ce3TnYK/rQvgHL+mvbXdpzLheJ+BXOgvkLfdZzzrxDRKaqzAASw0zTN3lKxNKw6iAiJKRja94yNs7qv754gIl11FoAmOINrBxdms9nE/NB/rG+RDub/YYaHhy/RNA3floZY8desv3aTVC6UtCuY/VzXPWpsbOyK8qrynUR0tuo8AIfxdL4nf2t7e/v9cX2n6HASWTD7NRqNk9sWtT1AREK/yQogyMPVDdWPG4bxsuogsiTqFulg/h9uYuOEme/JdwT9cX0AgSb9NemvzSSXCyX9CuZAruvOqlQqucq6SoGI/pfqPDAj/TTXmSvmcrlKKpXaozpMGGZMwRyor9B3Fed8NRHNUZ0FZoQdpmneWCqWvqk6SNhmZMHQvu+ZvLlSqVxh2/a1op82BkBTT01Mp9P35XK5+zPpzG9V51FhxhbMgSzL0i1uXWbb9kemyia0L7JBouyeKpXvMpONM8Yc1YFUQ8EcxLKsd6xfv/7a2uZaBxGdrzoPxMI2Xde/ke/Jf5kxFvhnj5MEBXMYlmWdbdv2Ra7ntti2fb7neS1E9FbVuUCpFzVNm0yn01tTWsr/30cZY0+rDhVVKJgj1Gg0ZjuOc+bU08vmWNw6beor/seqzgZC/ZGItjOT/cb/XyJ6Rtf15w3DeE11sDhBwQCANIn+oB0AqIWCAQBpUDAAIA0KBgCkQcEAgDQoGACQBgUDANKgYABAGhQMAEiDggEAaVAwACANCgYApEHBAIA0KBgAkAYFAwDSoGAAQBoUDABIg4IBAGlQMAAgDQoGAKT5zwAAAP//ijR5fShu9h8AAAAASUVORK5CYII=;" parent="OqGSFoKqHse3q_Ia956D-90" vertex="1">
          <mxGeometry x="12.5" y="10" width="115" height="115" as="geometry" />
        </mxCell>
      </root>
    </mxGraphModel>
  </diagram>
</mxfile>
